# xmcd
# 
# Track frame offsets:
#     150
#     19860
#     41366
#     60651
#     95120
#     111554
#     129141
#     143227
#     171636
#     189348
# 
# Disc length: 2956
# 
# Revision: 2
# Processed by: cddbd v1.5.2PL0 Copyright (c) Steve Scherf et al.
# Submitted via: fre:ac v1.0.27
# 
DISCID=8d0b8a0a
DTITLE=Alvin Jett and the Phat Noiz Blues Band - Milk And Cookies
DYEAR=2006
DGENRE=Blues
TTITLE0=Boogie To The Blues
TTITLE1=Best Friend You Ever Had
TTITLE2=Ain't Been The Same
TTITLE3=My Baby's Place
TTITLE4=It's A Cinch
TTITLE5=Milk And Cookies
TTITLE6=Borrowed Time
TTITLE7=Angels Sing The Blues
TTITLE8=7:47 Central Time
TTITLE9=Down In The Delta
EXTD=
EXTT0=
EXTT1=
EXTT2=
EXTT3=
EXTT4=
EXTT5=
EXTT6=
EXTT7=
EXTT8=
EXTT9=
PLAYORDER=
